<mxfile host="app.diagrams.net" modified="2022-08-23T02:11:20.779Z" agent="5.0 (Windows NT 10.0; Win64; x64) AppleWebKit/537.36 (KHTML, like Gecko) Chrome/104.0.0.0 Safari/537.36" etag="owFy8KIWplzV5a8x1hMf" version="20.2.3" type="github">
  <diagram id="C5RBs43oDa-KdzZeNtuy" name="Page-1">
    <mxGraphModel dx="981" dy="548" grid="1" gridSize="10" guides="1" tooltips="1" connect="1" arrows="1" fold="1" page="1" pageScale="1" pageWidth="827" pageHeight="1169" math="0" shadow="0">
      <root>
        <mxCell id="WIyWlLk6GJQsqaUBKTNV-0" />
        <mxCell id="WIyWlLk6GJQsqaUBKTNV-1" parent="WIyWlLk6GJQsqaUBKTNV-0" />
        <mxCell id="WIyWlLk6GJQsqaUBKTNV-3" value="Event 발생(웹)&lt;br&gt;dkey, 입환신호기 진행정지, 무유도등, 진로 post" style="rounded=1;whiteSpace=wrap;html=1;fontSize=12;glass=0;strokeWidth=1;shadow=0;" parent="WIyWlLk6GJQsqaUBKTNV-1" vertex="1">
          <mxGeometry x="264" y="50" width="300" height="70" as="geometry" />
        </mxCell>
        <mxCell id="PDSQJsC0O_vkzmLjT7Sk-0" value="dkey에 해당하는 IP 검색,&amp;nbsp;&lt;br&gt;dkey에 해당하는 subkey1~4, 현재 value검색&lt;br&gt;전달 받은 데이터에 해당하는 subkey1~4 별&amp;nbsp;status_t value검색" style="rounded=1;whiteSpace=wrap;html=1;" vertex="1" parent="WIyWlLk6GJQsqaUBKTNV-1">
          <mxGeometry x="159" y="250" width="510" height="60" as="geometry" />
        </mxCell>
        <mxCell id="PDSQJsC0O_vkzmLjT7Sk-6" value="전달 받은 데이터 value 검색을 위한 데이터 처리" style="shape=parallelogram;perimeter=parallelogramPerimeter;whiteSpace=wrap;html=1;fixedSize=1;" vertex="1" parent="WIyWlLk6GJQsqaUBKTNV-1">
          <mxGeometry x="264" y="150" width="300" height="60" as="geometry" />
        </mxCell>
        <mxCell id="PDSQJsC0O_vkzmLjT7Sk-7" value="NC_m_railway_semaphore_t value, ChangeTime update&lt;br&gt;nc_m_railway_logging_t before value, change value insert" style="rounded=1;whiteSpace=wrap;html=1;" vertex="1" parent="WIyWlLk6GJQsqaUBKTNV-1">
          <mxGeometry x="256" y="350" width="316" height="60" as="geometry" />
        </mxCell>
        <mxCell id="PDSQJsC0O_vkzmLjT7Sk-8" value="" style="endArrow=classic;html=1;rounded=0;entryX=0.5;entryY=0;entryDx=0;entryDy=0;" edge="1" parent="WIyWlLk6GJQsqaUBKTNV-1" source="WIyWlLk6GJQsqaUBKTNV-3" target="PDSQJsC0O_vkzmLjT7Sk-6">
          <mxGeometry width="50" height="50" relative="1" as="geometry">
            <mxPoint x="350" y="230" as="sourcePoint" />
            <mxPoint x="400" y="180" as="targetPoint" />
          </mxGeometry>
        </mxCell>
        <mxCell id="PDSQJsC0O_vkzmLjT7Sk-9" value="" style="endArrow=classic;html=1;rounded=0;entryX=0.5;entryY=0;entryDx=0;entryDy=0;" edge="1" parent="WIyWlLk6GJQsqaUBKTNV-1" source="PDSQJsC0O_vkzmLjT7Sk-6" target="PDSQJsC0O_vkzmLjT7Sk-0">
          <mxGeometry width="50" height="50" relative="1" as="geometry">
            <mxPoint x="350" y="230" as="sourcePoint" />
            <mxPoint x="400" y="180" as="targetPoint" />
          </mxGeometry>
        </mxCell>
        <mxCell id="PDSQJsC0O_vkzmLjT7Sk-10" value="" style="endArrow=classic;html=1;rounded=0;entryX=0.5;entryY=0;entryDx=0;entryDy=0;exitX=0.5;exitY=1;exitDx=0;exitDy=0;" edge="1" parent="WIyWlLk6GJQsqaUBKTNV-1" source="PDSQJsC0O_vkzmLjT7Sk-0" target="PDSQJsC0O_vkzmLjT7Sk-7">
          <mxGeometry width="50" height="50" relative="1" as="geometry">
            <mxPoint x="350" y="230" as="sourcePoint" />
            <mxPoint x="400" y="180" as="targetPoint" />
          </mxGeometry>
        </mxCell>
      </root>
    </mxGraphModel>
  </diagram>
</mxfile>
